<svg width="24" height="24" viewBox="0 0 24 24" fill="none" xmlns="http://www.w3.org/2000/svg">
<g clip-path="url(#clip0_122_75)">
<path d="M3 12C3 13.1819 3.23279 14.3522 3.68508 15.4442C4.13738 16.5361 4.80031 17.5282 5.63604 18.364C6.47177 19.1997 7.46392 19.8626 8.55585 20.3149C9.64778 20.7672 10.8181 21 12 21C13.1819 21 14.3522 20.7672 15.4442 20.3149C16.5361 19.8626 17.5282 19.1997 18.364 18.364C19.1997 17.5282 19.8626 16.5361 20.3149 15.4442C20.7672 14.3522 21 13.1819 21 12C21 10.8181 20.7672 9.64778 20.3149 8.55585C19.8626 7.46392 19.1997 6.47177 18.364 5.63604C17.5282 4.80031 16.5361 4.13738 15.4442 3.68508C14.3522 3.23279 13.1819 3 12 3C10.8181 3 9.64778 3.23279 8.55585 3.68508C7.46392 4.13738 6.47177 4.80031 5.63604 5.63604C4.80031 6.47177 4.13738 7.46392 3.68508 8.55585C3.23279 9.64778 3 10.8181 3 12Z" stroke="black" style="stroke:black;stroke-opacity:1;" stroke-width="2" stroke-linecap="round" stroke-linejoin="round"/>
<path d="M5 12C5 12.9193 5.18106 13.8295 5.53284 14.6788C5.88463 15.5281 6.40024 16.2997 7.05025 16.9497C7.70026 17.5998 8.47194 18.1154 9.32122 18.4672C10.1705 18.8189 11.0807 19 12 19C12.9193 19 13.8295 18.8189 14.6788 18.4672C15.5281 18.1154 16.2997 17.5998 16.9497 16.9497C17.5998 16.2997 18.1154 15.5281 18.4672 14.6788C18.8189 13.8295 19 12.9193 19 12C19 11.0807 18.8189 10.1705 18.4672 9.32122C18.1154 8.47194 17.5998 7.70026 16.9497 7.05025C16.2997 6.40024 15.5281 5.88463 14.6788 5.53284C13.8295 5.18106 12.9193 5 12 5C11.0807 5 10.1705 5.18106 9.32122 5.53284C8.47194 5.88463 7.70026 6.40024 7.05025 7.05025C6.40024 7.70026 5.88463 8.47194 5.53284 9.32122C5.18106 10.1705 5 11.0807 5 12Z" fill="#2235DB" style="fill:#2235DB;fill:color(display-p3 0.1340 0.2065 0.8593);fill-opacity:1;"/>
</g>
<defs>
<clipPath id="clip0_122_75">
<rect width="24" height="24" fill="white" style="fill:white;fill-opacity:1;"/>
</clipPath>
</defs>
</svg>
