<svg width="24" height="24" viewBox="0 0 24 24" fill="none" xmlns="http://www.w3.org/2000/svg">
<g clip-path="url(#clip0_143_70)">
<path d="M0 2C0 0.89543 0.895431 0 2 0H22C23.1046 0 24 0.89543 24 2V25H0V2Z" fill="#D9D9D9" style="fill:#D9D9D9;fill:color(display-p3 0.8510 0.8510 0.8510);fill-opacity:1;"/>
<path d="M2 1H22C22.5523 1 23 1.44771 23 2V24H1V2C1 1.44772 1.44772 1 2 1Z" stroke="black" stroke-opacity="0.41" style="stroke:black;stroke-opacity:0.41;" stroke-width="2"/>
<path d="M15.6169 7.22599C15.3974 6.82085 15.2727 6.3568 15.2727 5.86364C15.2727 4.28209 16.5548 3 18.1364 3C19.7179 3 21 4.28209 21 5.86364C21 7.30628 19.9332 8.49977 18.5455 8.69827V15.3017C19.9332 15.5002 21 16.6937 21 18.1364C21 19.7179 19.7179 21 18.1364 21C16.6937 21 15.5002 19.9332 15.3017 18.5455H8.69827C8.49977 19.9332 7.30628 21 5.86364 21C4.28209 21 3 19.7179 3 18.1364C3 16.5548 4.28209 15.2727 5.86364 15.2727C6.3568 15.2727 6.82085 15.3974 7.22599 15.6169L15.6169 7.22599ZM16.774 8.38307L8.38307 16.774C8.4071 16.8183 8.42998 16.8634 8.4517 16.9091H15.5483C15.8312 16.3136 16.3136 15.8312 16.9091 15.5483V8.4517C16.8634 8.42998 16.8183 8.4071 16.774 8.38307L16.774 8.38307ZM18.1364 7.09091C18.8142 7.09091 19.3636 6.54144 19.3636 5.86364C19.3636 5.18583 18.8142 4.63636 18.1364 4.63636C17.4586 4.63636 16.9091 5.18583 16.9091 5.86364C16.9091 6.54144 17.4586 7.09091 18.1364 7.09091ZM18.1364 19.3636C18.8142 19.3636 19.3636 18.8142 19.3636 18.1364C19.3636 17.4586 18.8142 16.9091 18.1364 16.9091C17.4586 16.9091 16.9091 17.4586 16.9091 18.1364C16.9091 18.8142 17.4586 19.3636 18.1364 19.3636ZM5.86364 19.3636C6.54144 19.3636 7.09091 18.8142 7.09091 18.1364C7.09091 17.4586 6.54144 16.9091 5.86364 16.9091C5.18583 16.9091 4.63636 17.4586 4.63636 18.1364C4.63636 18.8142 5.18583 19.3636 5.86364 19.3636Z" fill="#5B5B5B" style="fill:#5B5B5B;fill:color(display-p3 0.3569 0.3569 0.3569);fill-opacity:1;"/>
<mask id="mask0_143_70" style="mask-type:luminance" maskUnits="userSpaceOnUse" x="3" y="3" width="18" height="18">
<path d="M15.6169 7.22599C15.3974 6.82085 15.2727 6.3568 15.2727 5.86364C15.2727 4.28209 16.5548 3 18.1364 3C19.7179 3 21 4.28209 21 5.86364C21 7.30628 19.9332 8.49977 18.5455 8.69827V15.3017C19.9332 15.5002 21 16.6937 21 18.1364C21 19.7179 19.7179 21 18.1364 21C16.6937 21 15.5002 19.9332 15.3017 18.5455H8.69827C8.49977 19.9332 7.30628 21 5.86364 21C4.28209 21 3 19.7179 3 18.1364C3 16.5548 4.28209 15.2727 5.86364 15.2727C6.3568 15.2727 6.82085 15.3974 7.22599 15.6169L15.6169 7.22599ZM16.774 8.38307L8.38307 16.774C8.4071 16.8183 8.42998 16.8634 8.4517 16.9091H15.5483C15.8312 16.3136 16.3136 15.8312 16.9091 15.5483V8.4517C16.8634 8.42998 16.8183 8.4071 16.774 8.38307L16.774 8.38307ZM18.1364 7.09091C18.8142 7.09091 19.3636 6.54144 19.3636 5.86364C19.3636 5.18583 18.8142 4.63636 18.1364 4.63636C17.4586 4.63636 16.9091 5.18583 16.9091 5.86364C16.9091 6.54144 17.4586 7.09091 18.1364 7.09091ZM18.1364 19.3636C18.8142 19.3636 19.3636 18.8142 19.3636 18.1364C19.3636 17.4586 18.8142 16.9091 18.1364 16.9091C17.4586 16.9091 16.9091 17.4586 16.9091 18.1364C16.9091 18.8142 17.4586 19.3636 18.1364 19.3636ZM5.86364 19.3636C6.54144 19.3636 7.09091 18.8142 7.09091 18.1364C7.09091 17.4586 6.54144 16.9091 5.86364 16.9091C5.18583 16.9091 4.63636 17.4586 4.63636 18.1364C4.63636 18.8142 5.18583 19.3636 5.86364 19.3636Z" fill="white" style="fill:white;fill-opacity:1;"/>
</mask>
<g mask="url(#mask0_143_70)">
<path d="M24.2727 -0.272705H-0.272736V24.2727H24.2727V-0.272705Z" fill="#5B5B5B" style="fill:#5B5B5B;fill:color(display-p3 0.3569 0.3569 0.3569);fill-opacity:1;"/>
</g>
</g>
<defs>
<clipPath id="clip0_143_70">
<rect width="24" height="24" fill="white" style="fill:white;fill-opacity:1;"/>
</clipPath>
</defs>
</svg>
